<svg width="20" height="20" viewBox="0 0 20 20" fill="none" xmlns="http://www.w3.org/2000/svg">
<path d="M17.9732 6C19.0733 4.94586 19.4465 4.14114 19.3045 2C18.6615 2.71476 17.8102 3.16828 16.9547 3.29784C16.234 2.50072 15.1924 2 14.0341 2C11.7982 2 9.98559 3.81539 9.98559 6.0548L9.98559 7.33333C5.19299 7.33333 2.66357 3.77778 1.99793 2C-0.664619 7.33333 1.33229 12 7.32303 14C6.43553 14.8889 3.86172 16.6667 0.666656 16.6667C2.66357 18 4.75579 18 6.907 18C13.0187 18 17.9732 13.0378 17.9732 6.91666V6Z" fill="#141414"/>
</svg>
